<?xml version="1.0" standalone="no"?>
<!DOCTYPE svg PUBLIC "-//W3C//DTD SVG 20010904//EN"
 "http://www.w3.org/TR/2001/REC-SVG-20010904/DTD/svg10.dtd">
<svg version="1.0" xmlns="http://www.w3.org/2000/svg"
 width="835.000000pt" height="835.000000pt" viewBox="0 0 835.000000 835.000000"
 preserveAspectRatio="xMidYMid meet">
<metadata>
Created by potrace 1.14, written by Peter Selinger 2001-2017
</metadata>
<g transform="translate(0.000000,835.000000) scale(0.100000,-0.100000)"
fill="#000000" stroke="none">
<path d="M2846 7472 c-3 -5 -25 -10 -48 -11 -48 -1 -83 -7 -98 -16 -6 -3 -10
-1 -10 5 0 6 -5 8 -12 3 -7 -4 -28 -8 -47 -10 -19 -1 -38 -7 -42 -15 -7 -11
-9 -11 -9 1 0 10 -3 11 -13 2 -10 -8 -17 -7 -27 2 -10 9 -11 9 -6 0 5 -9 -1
-13 -18 -13 -14 0 -26 -4 -26 -9 0 -4 -12 -6 -26 -3 -15 3 -24 1 -21 -4 3 -5
-12 -9 -33 -9 -21 0 -36 -3 -34 -7 3 -5 -7 -8 -21 -8 -14 0 -24 -3 -22 -7 5
-7 -16 -12 -70 -16 -11 -1 -19 -5 -16 -9 2 -5 -5 -8 -17 -8 -12 0 -18 -4 -15
-10 3 -6 -1 -7 -9 -4 -9 3 -16 1 -16 -5 0 -6 -7 -8 -16 -4 -9 3 -19 2 -23 -3
-3 -5 -17 -15 -30 -22 -19 -11 -22 -11 -16 0 3 7 0 5 -8 -4 -8 -10 -24 -18
-36 -18 -12 0 -19 -4 -16 -10 5 -9 -15 -15 -37 -11 -5 0 -8 -4 -8 -11 0 -6 -3
-9 -6 -5 -4 3 -13 -1 -21 -9 -8 -8 -18 -12 -23 -9 -4 3 -13 -2 -20 -10 -7 -8
-19 -15 -26 -15 -8 0 -14 -4 -14 -10 0 -5 -5 -10 -12 -10 -20 0 -229 -142
-269 -184 -11 -11 -19 -16 -19 -12 0 4 -16 -8 -36 -28 -20 -20 -40 -36 -45
-36 -5 0 -9 -7 -9 -15 0 -8 -4 -15 -10 -15 -16 0 -60 -42 -54 -51 3 -5 -2 -6
-11 -3 -9 4 -15 3 -13 -2 2 -5 -19 -31 -45 -58 -26 -27 -47 -54 -47 -58 0 -5
-5 -6 -10 -3 -9 5 -12 -1 -9 -21 1 -8 -42 -44 -53 -44 -5 0 -7 -4 -4 -9 3 -4
-3 -16 -14 -26 -11 -10 -20 -24 -20 -32 0 -7 -7 -13 -15 -13 -8 0 -17 -11 -21
-25 -3 -14 -10 -25 -15 -25 -5 0 -9 -7 -9 -16 0 -9 -5 -12 -12 -8 -6 4 -8 3
-4 -4 3 -6 -1 -18 -10 -26 -8 -9 -12 -16 -7 -16 4 0 4 -4 -2 -8 -13 -9 -55
-69 -55 -78 0 -4 -8 -16 -18 -27 -12 -15 -13 -19 -2 -13 8 4 7 1 -3 -7 -10 -9
-18 -18 -18 -21 3 -21 0 -26 -11 -20 -8 5 -9 2 -5 -10 4 -10 1 -19 -8 -22 -8
-4 -13 -10 -10 -14 2 -4 -7 -29 -20 -56 -14 -27 -25 -55 -25 -61 0 -7 -4 -13
-8 -13 -4 0 -8 -10 -9 -22 -1 -11 -8 -25 -15 -29 -7 -5 -10 -9 -5 -9 4 0 1
-13 -8 -30 -8 -16 -15 -32 -15 -35 -1 -20 -14 -64 -19 -61 -3 2 -7 -9 -7 -26
-1 -17 -5 -33 -10 -37 -6 -3 -9 -13 -9 -21 1 -8 -3 -28 -8 -45 -5 -16 -10 -39
-13 -50 -6 -32 -12 -60 -14 -60 -1 0 -3 -18 -6 -40 -6 -56 -8 -68 -18 -84 -7
-10 -5 -12 3 -6 10 6 11 3 2 -12 -5 -11 -9 -39 -8 -61 2 -23 0 -42 -4 -42 -3
0 -5 -10 -4 -22 1 -13 -2 -29 -8 -36 -8 -10 -7 -16 2 -21 16 -10 16 -22 -1
-32 -7 -5 -8 -9 -2 -9 9 0 12 -38 4 -47 -7 -8 -5 -30 3 -40 6 -9 5 -13 -2 -13
-7 0 -9 -5 -5 -12 11 -17 11 -58 1 -65 -4 -2 -4 -10 1 -16 5 -7 9 -24 8 -39
-1 -16 1 -28 4 -28 4 0 5 -18 4 -40 -1 -22 2 -40 6 -40 10 0 8 -20 -3 -37 -5
-7 -4 -13 0 -13 8 0 14 -30 16 -82 1 -10 4 -18 8 -18 4 0 6 -11 4 -25 -1 -14
1 -25 6 -25 5 0 6 -7 3 -15 -4 -8 -2 -15 4 -15 6 0 9 -12 7 -26 -1 -14 4 -32
12 -40 11 -11 12 -14 1 -14 -8 0 -9 -3 -3 -8 10 -7 17 -27 18 -49 0 -7 4 -13
9 -13 5 0 6 -4 3 -10 -3 -5 0 -10 7 -10 9 0 9 -3 -2 -10 -12 -8 -12 -10 -1
-10 8 0 12 -3 8 -6 -3 -3 1 -24 9 -46 7 -22 11 -44 8 -49 -3 -5 0 -9 6 -9 7 0
10 -7 6 -15 -3 -8 0 -15 6 -15 6 0 9 -3 5 -6 -3 -3 3 -26 13 -50 11 -24 17
-44 13 -44 -3 0 0 -6 6 -13 6 -8 8 -17 4 -20 -3 -4 -1 -7 5 -7 7 0 12 -9 12
-20 0 -11 5 -20 11 -20 6 0 3 -7 -6 -17 -13 -13 -19 -13 -25 -3 -6 10 -9 10
-13 -1 -4 -11 -6 -11 -6 -1 -1 10 -6 10 -21 2 -11 -6 -20 -7 -20 -2 0 5 -23 6
-50 2 -33 -4 -50 -3 -50 4 0 6 -5 4 -10 -4 -5 -8 -10 -10 -10 -5 0 6 -30 10
-70 10 -40 0 -70 -4 -70 -10 0 -5 -5 -3 -10 5 -6 9 -10 10 -10 3 0 -8 -9 -9
-30 -3 -17 5 -30 5 -30 0 0 -5 -13 -5 -30 0 -16 5 -32 5 -35 0 -3 -5 -19 -5
-35 0 -21 6 -30 5 -30 -3 0 -7 -4 -6 -10 3 -7 11 -10 11 -10 2 0 -7 -5 -10
-11 -7 -18 12 -59 13 -59 1 0 -6 -5 -4 -10 4 -6 9 -10 10 -10 3 0 -8 -9 -9
-30 -3 -25 7 -30 6 -30 -8 0 -12 -3 -13 -8 -5 -8 13 -29 13 -50 0 -7 -5 -12
-3 -12 5 0 9 -3 9 -10 -2 -5 -8 -10 -10 -10 -5 0 6 -5 2 -11 -7 -5 -10 -15
-18 -20 -18 -27 0 -106 -101 -101 -127 2 -7 -2 -13 -8 -13 -6 0 -10 -28 -10
-70 0 -40 4 -70 10 -70 6 0 10 -6 10 -13 0 -19 24 -67 33 -67 5 0 5 -5 2 -10
-3 -5 0 -10 7 -10 8 0 20 -9 28 -20 8 -11 20 -20 27 -20 7 0 13 -5 13 -11 0
-5 4 -8 8 -5 5 3 21 -1 36 -9 14 -8 24 -10 21 -5 -3 6 1 7 9 4 9 -3 16 -10 16
-15 0 -6 8 -6 18 0 13 7 23 6 30 -1 8 -8 12 -8 12 -2 0 12 29 12 48 0 6 -4 12
-3 12 2 0 6 9 8 20 5 11 -3 28 1 37 8 10 8 14 9 10 2 -4 -6 -3 -14 3 -18 5 -3
10 -3 10 2 0 10 93 9 109 -1 6 -4 11 -3 11 2 0 9 42 8 57 -1 5 -3 15 -2 23 3
9 5 19 5 27 -2 7 -6 13 -7 13 -2 0 11 92 10 108 0 7 -4 12 -1 12 6 0 9 3 9 10
-2 5 -8 10 -10 10 -4 0 14 32 13 42 -1 5 -7 8 -7 8 0 0 11 61 12 78 1 7 -4 12
-3 12 1 0 5 9 9 20 9 11 0 20 -5 20 -11 0 -6 3 -7 8 0 4 6 21 10 37 10 17 0
33 -4 37 -10 5 -7 8 -7 8 0 0 11 121 12 139 1 6 -4 11 -4 11 1 0 10 93 9 109
-1 6 -4 11 -3 11 2 0 9 47 8 57 -1 2 -3 18 -1 34 3 20 6 29 5 29 -3 0 -8 3 -8
8 -2 4 6 21 10 37 10 17 0 33 -4 37 -10 5 -7 8 -6 8 0 0 12 40 13 58 1 7 -4
12 -4 12 1 0 10 92 9 108 -1 7 -4 12 -1 12 6 0 9 3 9 10 -2 5 -8 10 -10 10 -4
0 14 32 13 42 -1 5 -7 8 -7 8 0 0 11 60 12 78 1 5 -3 12 0 15 6 3 10 7 10 20
-1 10 -7 17 -9 17 -3 0 5 9 8 20 5 11 -3 28 1 37 8 10 8 14 9 10 2 -4 -6 -3
-14 3 -18 5 -3 10 -3 10 2 0 10 93 9 109 -1 6 -4 11 -3 11 2 0 9 42 8 57 -1 5
-3 15 -2 23 3 9 5 19 5 27 -2 9 -7 13 -7 13 0 0 5 9 8 20 5 11 -3 28 1 37 8
10 8 14 9 10 2 -4 -6 -3 -14 3 -18 5 -3 10 -3 10 2 0 10 93 9 109 -1 6 -4 11
-3 11 2 0 9 42 8 57 -1 5 -3 15 -2 23 3 9 5 19 5 27 -2 7 -6 13 -7 13 -2 0 11
92 10 108 0 7 -4 12 -1 12 6 0 9 3 9 10 -2 5 -8 10 -10 10 -4 0 14 32 13 42
-1 5 -7 8 -7 8 0 0 11 61 12 78 1 7 -4 12 -3 12 1 0 5 9 9 20 9 11 0 20 -5 20
-11 0 -6 3 -7 8 0 4 6 21 10 37 10 17 0 33 -4 37 -10 5 -7 8 -7 8 0 0 6 13 10
30 11 16 1 27 -2 25 -6 -2 -4 14 -4 35 0 23 4 43 3 46 -2 3 -5 13 -1 21 9 8
10 12 12 8 6 -7 -16 -4 -16 29 -3 17 6 27 6 32 -2 4 -7 14 -2 26 13 11 13 16
17 12 9 -5 -11 -2 -10 13 3 11 9 25 17 31 17 7 0 11 3 9 8 -1 4 1 7 5 7 19 0
125 202 120 228 -1 4 3 7 8 7 5 0 9 3 9 8 -1 4 4 23 11 42 8 19 12 37 11 39
-1 2 3 7 10 12 7 4 14 17 16 28 1 11 12 35 22 52 11 18 18 36 15 41 -3 4 0 8
6 8 6 0 9 4 5 9 -3 5 -1 12 5 16 5 3 10 15 10 26 0 10 5 19 11 19 5 0 7 4 4
10 -3 6 -1 10 5 10 6 0 9 4 5 9 -3 5 -1 12 5 16 5 3 10 13 10 22 0 9 8 22 18
30 9 8 11 12 5 8 -7 -3 -13 -1 -13 4 0 6 5 11 11 11 5 0 7 4 4 10 -3 6 1 10 9
10 19 0 29 -17 15 -26 -7 -4 -8 -9 -1 -13 9 -6 14 -23 29 -106 3 -16 9 -34 13
-40 4 -5 6 -18 5 -27 -2 -10 2 -18 8 -18 7 0 5 -5 -3 -10 -12 -8 -12 -10 -1
-10 8 0 11 -3 8 -7 -4 -3 -2 -12 4 -20 6 -7 8 -13 4 -13 -4 0 -2 -7 5 -15 10
-12 10 -15 -1 -15 -9 0 -10 -3 -4 -8 10 -7 16 -24 19 -52 1 -9 5 -21 10 -28 4
-6 4 -12 0 -12 -3 0 0 -8 7 -17 11 -13 11 -15 1 -9 -11 6 -11 4 -3 -10 19 -37
24 -58 34 -142 2 -16 7 -34 11 -41 4 -6 9 -21 12 -34 2 -12 6 -33 10 -47 3
-14 6 -29 7 -35 2 -5 7 -16 11 -24 7 -11 6 -12 -5 -6 -11 7 -12 6 -2 -6 6 -8
13 -26 15 -39 2 -14 7 -31 11 -37 5 -7 6 -17 3 -22 -4 -5 0 -12 6 -14 10 -4 9
-6 -1 -6 -11 -1 -10 -6 5 -23 10 -12 13 -18 5 -13 -10 6 -12 4 -5 -6 10 -17
15 -36 17 -66 0 -13 4 -23 8 -23 3 0 9 -17 12 -37 7 -42 15 -78 17 -78 2 0 9
-37 14 -70 1 -11 8 -37 15 -58 7 -21 10 -45 7 -53 -3 -9 -1 -12 4 -9 6 3 10
-2 11 -12 1 -33 7 -55 18 -66 6 -6 11 -19 11 -28 0 -9 7 -20 16 -23 8 -3 12
-10 9 -16 -3 -5 1 -10 10 -10 9 0 13 -4 10 -10 -3 -5 1 -10 9 -10 8 0 21 -9
29 -20 8 -11 16 -18 19 -15 3 3 17 -1 32 -9 15 -8 35 -13 44 -11 9 1 20 -3 24
-9 5 -8 8 -7 8 2 0 10 5 10 20 2 15 -8 20 -8 20 1 0 7 3 9 7 6 3 -4 13 -1 21
6 11 8 14 8 9 0 -10 -16 63 21 89 46 12 11 25 17 29 13 4 -4 6 -2 5 3 -5 22 1
36 12 29 6 -4 8 -3 4 4 -3 6 2 18 11 28 10 10 18 20 18 23 0 3 10 21 23 39 13
17 20 32 15 32 -4 0 0 5 10 11 9 6 15 14 12 19 -3 5 3 15 14 21 10 7 17 18 14
26 -3 7 2 16 11 19 9 3 14 10 11 14 -3 4 2 14 11 21 8 7 22 26 30 43 29 61 45
86 55 86 6 0 8 4 4 9 -3 5 2 16 10 24 8 9 15 20 15 25 0 5 11 22 25 38 13 15
22 30 20 32 -2 3 7 19 20 37 14 17 25 36 25 42 0 5 9 18 20 28 11 10 20 24 20
32 0 7 5 13 11 13 5 0 7 4 4 10 -3 5 -1 10 5 10 6 0 8 4 5 10 -3 6 -3 10 2 10
4 0 15 15 23 33 7 17 22 41 32 51 10 11 18 26 18 33 0 7 5 13 11 13 5 0 8 4 5
8 -3 5 3 14 14 22 10 7 16 19 13 27 -3 7 0 13 6 13 6 0 11 6 11 14 0 8 7 16
15 20 8 3 14 9 13 13 -3 12 24 63 34 63 4 0 8 6 8 13 0 7 8 22 18 33 20 21 22
26 22 50 0 8 4 13 9 9 5 -3 15 10 22 29 8 21 17 32 26 29 7 -3 13 -1 13 4 0 5
14 9 30 9 17 0 30 -4 30 -10 0 -6 5 -5 12 2 7 7 17 8 30 1 10 -5 18 -6 18 -1
0 13 53 10 63 -3 4 -7 10 -7 15 0 10 14 95 14 104 1 6 -8 8 -8 8 0 0 6 7 11
15 11 8 0 15 -5 15 -10 0 -5 7 -4 16 4 13 10 17 10 25 -2 5 -8 9 -9 9 -3 0 6
7 11 15 11 8 0 15 -5 15 -11 0 -6 4 -5 9 2 11 17 21 17 32 0 7 -10 9 -10 9 0
0 10 5 10 21 1 16 -8 20 -8 14 1 -9 14 27 10 37 -5 5 -6 8 -5 8 3 0 10 5 10
21 1 15 -8 19 -8 15 0 -4 6 -3 11 3 11 5 0 13 -5 16 -10 5 -8 12 -7 22 2 19
15 23 15 34 -4 6 -8 12 -9 17 -3 9 13 62 15 62 3 0 -5 4 -6 10 -3 13 8 50 17
77 18 12 1 20 4 17 8 -3 6 18 20 36 23 14 3 48 41 44 48 -3 4 1 5 9 2 8 -3 18
0 23 7 5 8 3 10 -7 4 -11 -7 -12 -6 -2 7 7 8 9 19 5 23 -4 5 -1 5 6 1 6 -4 13
-2 13 3 2 14 6 29 9 36 1 3 3 8 4 13 1 4 5 13 9 20 5 7 3 12 -5 12 -8 0 -9 3
-3 8 12 8 13 22 2 39 -4 6 -2 15 4 19 8 4 8 8 0 13 -6 4 -12 16 -15 26 -9 41
-19 65 -27 65 -5 0 -9 7 -9 17 0 9 -3 13 -7 10 -3 -4 -18 6 -32 21 -34 37 -65
50 -128 56 -18 1 -35 5 -39 9 -4 3 -16 1 -27 -4 -15 -8 -22 -8 -28 2 -7 12 -9
11 -9 0 0 -11 -3 -12 -12 -3 -8 8 -17 8 -31 0 -11 -5 -22 -6 -26 -2 -9 13 -34
16 -26 4 7 -11 -8 -14 -19 -3 -10 10 -46 11 -40 1 6 -10 -10 -11 -20 -1 -9 9
-46 11 -40 2 2 -4 -5 -7 -16 -6 -11 1 -20 4 -20 7 0 4 -7 7 -15 7 -8 0 -12 -4
-9 -8 2 -4 -5 -7 -16 -6 -11 1 -20 6 -20 12 0 5 -5 3 -10 -5 -8 -12 -10 -12
-10 -1 0 11 -3 11 -15 1 -11 -9 -15 -9 -15 -1 0 7 -5 9 -12 4 -19 -11 -38 -13
-38 -2 0 5 -12 4 -27 -2 -20 -7 -28 -6 -35 3 -6 10 -8 10 -8 -1 0 -11 -3 -12
-12 -3 -8 8 -17 8 -31 0 -11 -5 -22 -6 -26 -2 -9 13 -34 16 -26 4 7 -11 -8
-14 -19 -3 -10 10 -46 11 -40 1 6 -10 -10 -11 -20 -1 -9 9 -46 11 -40 2 2 -4
-5 -7 -16 -6 -11 1 -20 4 -20 7 0 4 -7 7 -15 7 -8 0 -12 -4 -9 -8 2 -4 -5 -7
-16 -6 -11 1 -20 4 -20 7 0 4 -7 7 -15 7 -8 0 -12 -4 -9 -8 2 -4 -11 -6 -31
-5 -19 2 -35 0 -35 -6 0 -5 -4 -7 -8 -4 -16 9 -79 -19 -74 -33 3 -8 0 -11 -7
-7 -6 4 -11 2 -11 -5 0 -7 -3 -10 -6 -6 -8 7 -33 -16 -28 -25 3 -4 -5 -12 -17
-18 -11 -7 -18 -14 -15 -17 3 -3 -2 -12 -10 -20 -8 -8 -12 -18 -9 -23 3 -4 -2
-10 -10 -14 -8 -3 -23 -23 -32 -46 -10 -22 -21 -40 -26 -40 -4 0 -5 -4 -2 -10
3 -5 2 -10 -3 -10 -5 0 -17 -16 -26 -35 -9 -19 -21 -35 -27 -35 -6 0 -8 -4 -4
-9 3 -5 1 -12 -5 -16 -6 -4 -7 -11 -4 -17 4 -7 2 -8 -4 -4 -7 4 -12 1 -12 -9
0 -9 -4 -14 -8 -11 -4 2 -8 -4 -9 -14 -1 -11 -11 -30 -23 -42 -11 -12 -18 -28
-15 -36 2 -7 1 -11 -4 -8 -5 3 -12 -2 -16 -12 -3 -9 -5 -17 -3 -18 2 0 -4 -8
-12 -17 -33 -36 -40 -47 -40 -62 0 -8 -4 -15 -10 -15 -5 0 -10 -7 -10 -15 0
-8 -4 -15 -10 -15 -5 0 -10 -7 -10 -15 0 -8 -4 -15 -10 -15 -5 0 -10 -7 -10
-15 0 -8 -4 -15 -10 -15 -5 0 -6 -7 -3 -17 4 -10 2 -14 -4 -10 -6 4 -14 -4
-17 -18 -4 -14 -11 -25 -16 -25 -6 0 -10 -7 -10 -15 0 -8 -5 -15 -11 -15 -5 0
-7 -4 -4 -10 3 -6 1 -10 -4 -10 -6 0 -10 -3 -10 -7 3 -19 -2 -23 -15 -11 -10
9 -11 15 -2 20 8 6 8 8 -1 8 -8 0 -13 13 -13 30 0 17 -4 30 -9 30 -5 0 -8 14
-7 30 1 17 -1 30 -5 30 -4 0 -6 9 -4 20 2 11 -1 20 -7 20 -6 0 -8 9 -5 20 3
11 1 23 -4 26 -6 3 -9 13 -7 22 1 10 -2 26 -8 37 -5 11 -9 29 -9 40 0 11 -3
22 -7 25 -4 3 -9 21 -11 40 -2 19 -8 43 -12 52 -4 9 -4 22 0 28 3 5 1 10 -5
10 -7 0 -10 6 -7 14 3 8 3 17 -1 20 -6 6 -11 24 -16 56 -1 9 -5 21 -10 28 -4
7 -2 12 6 12 10 0 10 2 1 8 -7 4 -14 21 -16 38 -2 16 -6 35 -10 41 -4 6 -8 23
-9 37 -1 14 -5 26 -8 26 -3 0 -6 17 -8 37 -1 20 -8 41 -15 45 -9 6 -8 8 3 8
11 0 12 2 3 8 -7 4 -13 24 -15 45 -1 20 -6 37 -11 37 -5 0 -7 9 -4 20 3 11 1
20 -5 20 -5 0 -6 5 -3 10 4 6 2 16 -3 23 -9 11 -12 27 -13 70 0 9 -4 17 -8 17
-4 0 -8 17 -9 37 -2 20 -8 43 -14 50 -6 7 -7 13 -4 13 4 0 2 9 -4 20 -8 14 -8
20 0 20 6 0 4 7 -4 16 -18 17 -21 28 -6 19 5 -3 3 10 -5 30 -9 19 -12 35 -9
35 4 0 2 6 -3 13 -8 11 -11 24 -15 75 -1 6 -5 12 -9 12 -4 0 -7 12 -7 28 0 15
-7 45 -17 67 -10 22 -17 43 -17 47 3 13 -36 47 -44 40 -4 -4 -5 -2 -1 3 7 14
-4 33 -23 37 -8 2 -23 11 -32 21 -9 10 -19 18 -22 18 -32 -4 -46 1 -40 12 6 9
5 9 -7 0 -9 -7 -20 -9 -29 -3 -9 6 -17 5 -22 -3 -6 -9 -8 -9 -8 1 0 7 -4 11
-8 8 -5 -3 -24 -8 -43 -11 -18 -3 -42 -14 -52 -23 -11 -9 -20 -15 -21 -12 0 2
-12 -3 -26 -13 -13 -9 -21 -17 -16 -17 5 0 -1 -9 -13 -19 -14 -12 -20 -25 -15
-32 4 -7 3 -10 -2 -7 -5 3 -15 0 -22 -8 -7 -8 -11 -14 -8 -14 3 0 0 -13 -5
-30 -6 -17 -16 -27 -22 -23 -5 3 -7 1 -4 -4 4 -6 -3 -33 -15 -59 -13 -27 -23
-56 -23 -64 -1 -8 -7 -14 -15 -12 -8 2 -12 1 -8 -3 6 -7 -9 -51 -48 -140 -10
-22 -17 -43 -16 -47 1 -5 -2 -8 -7 -8 -4 0 -16 -25 -26 -55 -10 -33 -21 -52
-27 -48 -6 3 -8 2 -5 -4 3 -5 0 -21 -8 -36 -8 -15 -11 -27 -8 -27 3 0 0 -7 -7
-15 -7 -8 -9 -15 -6 -15 4 0 0 -7 -8 -16 -9 -8 -16 -24 -16 -35 0 -10 -5 -19
-11 -19 -5 0 -8 -4 -4 -9 3 -5 1 -12 -5 -16 -6 -4 -8 -11 -5 -16 4 -5 1 -9 -5
-9 -6 0 -9 -4 -5 -9 3 -5 1 -12 -5 -16 -6 -4 -8 -11 -5 -16 4 -5 2 -9 -4 -9
-5 0 -12 -14 -16 -30 -4 -16 -11 -30 -16 -30 -6 0 -8 -4 -4 -9 3 -5 1 -12 -5
-16 -6 -4 -8 -11 -5 -16 4 -5 1 -9 -4 -9 -6 0 -11 -9 -11 -20 0 -11 -4 -20 -8
-20 -5 0 -9 -7 -10 -15 -1 -8 -3 -22 -4 -30 -1 -8 -8 -17 -16 -20 -8 -3 -11
-12 -8 -20 3 -8 1 -15 -5 -15 -6 0 -7 -4 -4 -10 3 -5 1 -10 -5 -10 -6 0 -8 -4
-5 -10 3 -5 2 -10 -4 -10 -5 0 -8 -9 -6 -20 2 -11 0 -18 -6 -15 -8 5 -14 -15
-10 -37 1 -8 -15 -12 -31 -9 -5 0 -8 -3 -8 -8 0 -5 -15 -5 -35 -1 -24 5 -35 4
-35 -4 0 -6 -5 -4 -10 4 -9 13 -10 13 -10 0 0 -13 -1 -13 -10 0 -7 11 -10 11
-10 2 0 -9 -5 -10 -17 -3 -10 5 -26 5 -39 1 -12 -5 -25 -6 -28 -2 -11 10 -46
9 -46 -2 0 -6 -5 -4 -10 4 -6 9 -10 10 -10 3 0 -8 -9 -9 -30 -3 -16 5 -32 5
-35 0 -3 -5 -19 -5 -35 0 -21 6 -30 5 -30 -3 0 -7 -4 -6 -10 3 -8 12 -11 13
-19 1 -7 -11 -9 -11 -14 0 -3 9 -6 9 -6 2 -1 -8 -10 -9 -31 -3 -17 5 -30 5
-30 0 0 -5 -13 -5 -30 0 -16 5 -32 5 -35 0 -3 -5 -19 -5 -35 0 -21 6 -30 5
-30 -3 0 -7 -4 -6 -10 3 -7 11 -10 11 -10 2 0 -7 -5 -10 -11 -7 -18 12 -59 13
-59 1 0 -6 -5 -4 -10 4 -6 9 -10 10 -10 3 0 -8 -9 -9 -30 -3 -16 5 -32 5 -35
0 -3 -5 -19 -5 -35 0 -21 6 -30 5 -30 -3 0 -7 -4 -6 -10 3 -7 11 -10 11 -10 2
0 -7 -5 -10 -11 -7 -18 12 -59 13 -59 1 0 -6 -5 -4 -10 4 -6 9 -10 10 -10 3 0
-8 -9 -9 -29 -3 -19 5 -33 4 -40 -3 -8 -8 -11 -7 -11 3 0 13 -2 13 -10 0 -7
-11 -10 -11 -10 -2 0 10 -5 10 -20 2 -11 -6 -20 -7 -20 -2 0 5 -22 6 -50 2
-33 -4 -50 -3 -50 4 0 6 -5 4 -10 -4 -5 -8 -10 -10 -10 -5 0 6 -30 10 -70 10
-40 0 -70 -4 -70 -10 0 -5 -5 -3 -10 5 -6 9 -10 11 -10 3 0 -7 -7 -10 -15 -7
-15 6 -65 99 -65 121 0 7 -3 13 -7 13 -9 0 -33 49 -33 67 0 7 -5 13 -10 13 -6
0 -9 3 -8 8 1 4 -3 17 -10 30 -7 12 -10 22 -6 22 3 0 1 7 -6 15 -7 8 -9 15 -4
15 4 0 3 5 -4 12 -7 7 -12 20 -12 30 0 10 -4 18 -8 18 -4 0 -9 11 -10 25 -2
33 -6 49 -12 55 -5 5 -36 111 -46 159 -3 13 -10 33 -15 44 -8 15 -8 18 1 12 9
-6 9 -3 2 11 -5 11 -12 30 -13 44 -2 14 -8 28 -14 32 -6 5 -5 8 4 8 11 0 11 3
1 15 -7 9 -10 18 -7 22 4 3 2 12 -4 20 -9 10 -8 13 1 13 8 0 9 4 3 13 -5 6 -9
33 -9 60 1 26 -2 47 -6 47 -4 0 -3 12 2 26 6 14 6 23 1 20 -5 -3 -7 16 -4 42
2 26 5 80 5 119 2 52 6 74 16 78 10 4 11 9 4 18 -11 13 -11 54 0 72 3 6 4 18
3 28 -2 9 1 17 5 17 5 0 8 12 6 28 -1 15 1 32 6 38 4 6 9 19 11 30 1 10 6 24
10 31 4 6 1 14 -5 16 -10 4 -10 6 0 6 6 1 12 10 12 21 0 11 4 20 10 20 5 0 7
6 4 14 -3 7 2 16 11 20 9 3 13 10 10 16 -4 6 -1 27 6 48 7 20 12 40 11 45 -1
4 2 7 8 7 6 0 9 3 8 8 -3 16 48 112 56 105 5 -4 6 -3 2 4 -3 6 -1 15 5 18 5 4
8 13 5 20 -2 7 2 16 11 19 8 4 13 13 10 20 -3 8 1 17 10 20 9 4 13 9 10 12 -6
6 2 18 41 59 13 14 20 25 17 25 -9 0 57 93 73 103 6 4 12 15 12 23 0 8 5 12
10 9 6 -3 10 -1 10 4 0 6 23 34 50 62 28 28 50 55 50 61 0 5 5 6 10 3 6 -3 10
1 10 9 0 8 9 18 20 21 11 4 18 10 15 15 -3 5 6 12 20 16 13 3 23 10 20 14 -5
8 24 25 37 22 5 -1 7 1 5 6 -1 4 2 7 6 7 5 0 14 10 20 22 7 12 17 23 22 25 6
2 9 7 7 12 -2 5 6 6 17 3 11 -3 19 -2 18 2 -1 3 3 8 8 10 6 3 19 13 29 23 10
9 23 15 28 12 4 -3 8 0 8 6 0 6 11 15 25 20 14 5 25 14 25 20 0 6 4 9 9 5 5
-3 12 -1 16 5 4 6 10 8 15 5 5 -3 12 0 16 6 5 8 3 9 -7 4 -10 -5 -11 -5 -4 3
6 6 19 12 30 14 11 1 26 9 33 16 8 7 18 10 23 6 5 -3 12 2 15 10 3 9 10 13 15
10 5 -3 9 -1 9 5 0 5 11 8 25 7 13 -2 22 0 20 4 -6 9 19 20 46 20 10 0 19 5
19 11 0 5 5 7 10 4 6 -3 10 -1 10 4 0 6 5 11 11 11 5 0 7 -5 3 -11 -3 -6 5 -4
18 5 14 9 28 13 31 9 4 -3 7 -1 7 4 0 6 11 10 25 9 15 -2 22 1 18 7 -4 6 0 8
10 4 10 -3 17 -3 17 2 0 5 11 7 25 6 14 -2 25 0 25 5 0 5 11 7 25 5 14 -1 25
1 25 6 0 4 9 6 20 4 11 -2 20 2 20 8 0 8 3 8 9 -2 6 -9 11 -10 15 -2 4 6 18 9
32 7 14 -3 24 0 24 7 0 8 3 8 12 -1 9 -9 16 -8 29 4 11 10 19 12 24 5 4 -8 12
-8 26 -1 13 8 19 7 19 0 0 -6 5 -8 10 -5 19 12 71 15 64 4 -4 -7 2 -7 15 1 16
8 26 8 35 1 7 -6 16 -8 20 -4 10 10 36 12 36 3 0 -10 20 -8 38 3 6 5 12 4 12
-1 0 -11 30 -9 49 3 10 5 12 4 7 -3 -5 -8 4 -12 26 -13 18 -1 44 -2 58 -3 14
0 31 -5 38 -9 6 -5 17 -5 22 -2 6 3 10 0 10 -7 0 -9 3 -9 10 2 6 9 10 11 10 3
0 -7 7 -10 17 -6 12 5 14 3 8 -7 -6 -10 -4 -12 10 -7 9 4 24 2 31 -4 11 -9 14
-8 14 1 0 9 7 7 22 -6 13 -12 18 -13 13 -4 -7 12 -6 13 7 3 8 -7 27 -14 42
-15 15 -1 32 -8 37 -15 6 -6 17 -9 25 -6 8 3 14 0 14 -6 0 -6 5 -11 11 -11 5
0 7 6 3 13 -4 6 1 5 12 -4 31 -26 48 -34 39 -19 -5 8 5 4 22 -8 17 -12 38 -22
46 -22 9 0 19 -5 22 -10 4 -6 10 -8 15 -5 5 3 13 -3 19 -12 6 -11 11 -13 11
-5 0 8 8 6 22 -8 12 -11 30 -20 39 -20 10 0 19 -4 21 -9 2 -5 10 -11 18 -13 8
-2 23 -11 34 -20 11 -10 26 -18 33 -18 7 0 13 -4 13 -10 0 -5 7 -10 15 -10 8
0 15 -4 15 -10 0 -5 7 -10 15 -10 8 0 15 -5 15 -12 0 -6 3 -9 6 -6 3 3 22 -9
42 -28 20 -19 43 -34 50 -34 7 0 10 -4 7 -10 -3 -5 0 -10 8 -10 8 0 29 -16 46
-35 17 -19 33 -35 36 -35 7 0 85 -79 85 -86 0 -4 11 -15 25 -26 14 -11 22 -25
18 -31 -3 -7 -3 -9 2 -5 4 4 18 -3 30 -17 13 -13 26 -21 29 -18 3 3 8 -2 12
-11 3 -9 10 -13 15 -10 6 3 16 0 24 -6 8 -6 19 -9 25 -5 5 3 10 2 10 -2 0 -5
9 -9 20 -10 13 -1 18 2 13 10 -5 9 -3 9 8 0 17 -14 59 -13 59 0 0 5 7 4 15 -3
11 -9 15 -9 15 -1 0 7 5 9 10 6 6 -3 10 -1 10 5 0 7 7 9 16 6 10 -4 13 -2 8 6
-5 8 -2 9 10 5 9 -4 15 -3 12 1 -2 4 8 17 24 27 16 11 34 30 41 42 7 12 16 20
20 17 5 -3 11 6 15 20 3 15 11 23 19 20 14 -6 39 29 28 40 -3 3 -1 6 6 6 7 0
26 14 42 31 16 17 29 28 29 25 0 -4 14 8 32 26 18 18 35 33 38 33 3 0 12 6 20
13 49 42 64 51 73 45 5 -3 7 -1 4 4 -4 6 9 18 28 27 20 10 33 21 30 26 -3 6 1
7 9 4 9 -3 16 -2 16 3 0 10 50 38 63 35 4 -1 7 2 7 8 0 6 3 9 8 8 11 -3 102
45 102 54 0 4 7 4 17 1 12 -5 14 -3 8 7 -5 9 -4 11 3 6 6 -4 29 3 52 14 22 11
40 18 40 14 0 -4 7 0 16 7 9 8 22 14 28 15 6 0 19 2 29 2 10 1 16 6 13 10 -3
5 5 8 17 7 12 -1 28 2 35 8 6 5 12 6 12 2 0 -5 9 0 20 10 18 16 20 16 14 2 -5
-15 -4 -15 25 -1 18 9 39 13 47 10 8 -3 13 -2 10 3 -3 5 6 11 19 14 14 2 28 0
31 -5 3 -5 15 -1 27 9 14 12 18 13 12 3 -7 -12 -6 -13 6 -4 8 7 33 11 56 10
23 0 39 3 35 8 -3 5 1 7 10 4 8 -4 21 -2 28 2 8 5 18 6 24 3 12 -8 75 -10 70
-2 -2 3 10 6 26 5 17 -1 30 -5 30 -10 0 -5 6 -5 13 0 14 11 37 11 54 1 6 -4
14 -3 17 2 4 6 18 6 35 1 19 -5 33 -4 41 3 10 9 11 9 5 -1 -6 -11 2 -13 33
-11 23 2 44 0 48 -3 3 -4 12 -4 20 -1 8 3 14 1 14 -5 0 -11 18 -11 37 1 9 6
11 3 7 -7 -4 -11 0 -13 14 -9 11 2 30 -1 42 -7 14 -7 20 -8 16 -1 -4 6 8 4 27
-4 19 -8 37 -11 41 -8 3 4 6 1 6 -6 0 -7 6 -11 13 -8 6 2 21 -3 31 -12 11 -9
16 -10 12 -3 -9 16 -1 15 33 -3 16 -8 31 -11 35 -8 3 4 6 0 6 -8 0 -10 10 -15
28 -14 15 0 29 -3 32 -6 3 -4 12 -9 20 -11 8 -2 21 -10 28 -18 12 -13 13 -13
6 0 -7 13 -6 13 10 0 10 -8 25 -15 34 -17 9 -1 18 -7 20 -13 2 -5 8 -8 13 -4
5 3 9 1 9 -5 0 -6 7 -7 17 -4 11 4 14 3 9 -5 -4 -7 -1 -12 8 -12 9 0 16 -4 16
-8 0 -4 12 -13 28 -20 50 -23 72 -37 72 -44 0 -5 7 -8 15 -8 8 0 15 -7 15 -15
0 -8 6 -12 13 -9 7 2 28 -9 45 -26 18 -16 35 -30 40 -30 4 0 19 -13 32 -30 14
-16 31 -29 38 -30 6 0 12 -7 12 -16 0 -8 4 -13 8 -10 5 3 15 -4 22 -15 8 -10
21 -19 29 -19 8 0 12 -3 9 -6 -3 -3 12 -23 34 -45 22 -21 37 -39 34 -39 -3 0
10 -16 29 -36 19 -20 35 -40 35 -45 0 -6 4 -7 10 -4 5 3 10 -1 10 -9 0 -9 5
-16 10 -16 6 0 10 -6 10 -13 0 -7 9 -23 20 -35 12 -12 18 -22 15 -22 -4 0 0
-7 7 -15 30 -33 38 -45 38 -55 0 -5 5 -10 11 -10 5 0 8 -4 4 -9 -3 -5 -1 -12
5 -16 5 -3 17 -23 27 -43 9 -20 21 -40 26 -43 5 -3 8 -10 8 -15 -1 -17 10 -44
19 -44 4 0 11 -7 14 -16 4 -10 2 -13 -7 -8 -6 4 -4 -2 6 -13 9 -11 14 -23 10
-26 -3 -4 -1 -7 5 -7 6 0 9 -7 6 -15 -4 -8 -2 -15 3 -15 5 0 10 -6 11 -12 1
-13 9 -48 12 -58 1 -3 2 -8 1 -12 0 -5 4 -8 10 -8 6 0 9 -7 5 -15 -3 -8 0 -15
5 -15 6 0 9 -8 7 -18 -3 -10 0 -23 7 -29 7 -6 11 -25 10 -42 -1 -17 1 -31 5
-31 4 0 10 -9 13 -20 3 -11 0 -20 -5 -20 -6 0 -5 -6 2 -15 7 -8 9 -15 5 -15
-4 0 -3 -6 2 -12 6 -7 9 -23 8 -35 -1 -13 2 -23 6 -23 4 0 6 -10 4 -22 -3 -12
0 -27 6 -34 7 -8 7 -14 -1 -19 -8 -5 -8 -11 1 -21 9 -11 9 -14 0 -14 -7 0 -9
-5 -4 -12 12 -19 12 -298 0 -298 -5 0 -4 -6 2 -14 9 -10 9 -16 1 -21 -6 -4
-10 -17 -8 -28 1 -12 -1 -28 -5 -35 -5 -7 -3 -12 5 -12 11 0 11 -2 0 -9 -7 -4
-15 -21 -18 -37 -2 -16 -6 -40 -9 -54 -3 -14 -6 -32 -7 -40 0 -8 -5 -21 -11
-27 -5 -7 -7 -13 -4 -13 4 0 0 -18 -8 -39 -7 -22 -11 -42 -8 -45 4 -3 1 -6 -5
-6 -6 0 -9 -9 -7 -20 2 -11 -1 -20 -7 -20 -5 0 -8 -7 -5 -15 4 -8 2 -17 -4
-20 -5 -4 -7 -10 -4 -15 3 -5 1 -11 -4 -15 -6 -3 -8 -12 -4 -20 3 -8 0 -15 -7
-15 -7 0 -10 -6 -7 -14 3 -7 -1 -23 -9 -35 -8 -11 -12 -21 -8 -21 3 0 1 -7 -6
-15 -6 -8 -9 -18 -6 -24 3 -5 -1 -12 -10 -15 -8 -3 -13 -10 -9 -16 3 -5 -3
-19 -14 -31 -11 -12 -18 -26 -15 -31 3 -4 0 -8 -6 -8 -6 0 -9 -4 -5 -9 3 -5 1
-12 -5 -16 -6 -4 -8 -11 -5 -16 4 -5 1 -9 -4 -9 -6 0 -11 -9 -11 -20 0 -11 -5
-20 -11 -20 -5 0 -8 -4 -4 -9 3 -6 -3 -14 -12 -20 -10 -6 -14 -11 -9 -11 5 0
-1 -12 -15 -27 -13 -14 -17 -22 -9 -18 11 6 10 3 -2 -12 -10 -11 -18 -24 -18
-30 0 -6 -7 -14 -16 -17 -8 -3 -13 -10 -9 -15 3 -6 -1 -13 -8 -18 -13 -8 -24
-28 -25 -46 0 -5 -11 -17 -23 -28 -12 -10 -18 -19 -14 -19 4 0 -1 -8 -11 -18
-11 -9 -25 -29 -33 -45 -8 -15 -18 -27 -23 -27 -4 0 -8 -5 -8 -12 0 -7 -12
-23 -27 -36 -16 -13 -22 -21 -15 -17 20 10 14 -9 -8 -25 -11 -8 -20 -20 -20
-28 0 -7 -5 -10 -10 -7 -6 3 -14 -4 -19 -17 -5 -13 -20 -34 -33 -48 -14 -14
-33 -38 -42 -53 -10 -15 -22 -24 -27 -21 -5 3 -9 2 -8 -3 3 -19 -2 -34 -10
-28 -5 3 -12 -4 -16 -15 -3 -11 -11 -20 -16 -20 -6 0 -8 -3 -6 -7 6 -10 -19
-34 -27 -26 -3 4 -6 1 -6 -5 0 -6 -12 -23 -27 -37 -15 -14 -25 -25 -22 -25 3
0 -26 -33 -65 -72 -39 -40 -69 -76 -68 -80 2 -8 -14 -12 -31 -9 -5 1 -6 -3 -2
-9 3 -5 -11 -25 -32 -45 -42 -39 -41 -38 -88 -88 -19 -19 -36 -33 -38 -30 -3
2 -8 -4 -11 -15 -4 -10 -18 -25 -31 -32 -14 -7 -25 -18 -25 -24 0 -6 -16 -22
-35 -35 -19 -13 -32 -28 -28 -34 4 -7 0 -8 -13 -3 -10 4 -15 4 -12 1 8 -8 -48
-65 -63 -65 -6 0 -8 -3 -6 -7 2 -5 -6 -18 -19 -31 -13 -12 -24 -21 -24 -18 0
2 -15 -10 -32 -27 -18 -16 -32 -34 -31 -38 2 -5 -5 -5 -14 -2 -11 4 -14 3 -9
-5 4 -7 1 -12 -8 -12 -9 0 -16 -7 -16 -16 0 -10 -6 -14 -15 -10 -8 3 -15 0
-15 -7 0 -7 -10 -19 -22 -27 -12 -8 -44 -36 -70 -61 -26 -26 -48 -45 -48 -43
0 2 -8 -4 -19 -13 -46 -45 -103 -88 -112 -86 -5 2 -8 0 -8 -5 3 -19 -2 -33
-11 -27 -5 3 -28 -13 -50 -35 -24 -24 -46 -38 -53 -34 -7 4 -9 4 -5 0 7 -9
-27 -46 -42 -46 -6 0 -10 -4 -10 -10 0 -5 -5 -10 -11 -10 -6 0 -26 -15 -44
-34 -25 -26 -36 -32 -45 -23 -10 9 -11 9 -7 1 6 -11 -161 -153 -180 -155 -5 0
-12 -7 -16 -15 -4 -8 -15 -14 -24 -14 -9 0 -13 -3 -10 -6 8 -8 -36 -44 -53
-44 -6 0 -8 -4 -5 -10 3 -5 0 -10 -8 -10 -8 0 -18 -7 -21 -16 -3 -8 -10 -12
-16 -9 -5 3 -10 1 -10 -4 0 -6 -7 -11 -16 -11 -8 0 -12 -4 -9 -10 3 -5 1 -10
-4 -10 -17 0 -24 -4 -46 -25 -39 -37 -63 -53 -69 -48 -3 3 -8 -2 -12 -11 -3
-9 -12 -16 -19 -16 -7 0 -16 -7 -19 -16 -3 -8 -10 -13 -15 -9 -6 3 -15 -4 -21
-15 -6 -11 -15 -18 -21 -15 -5 4 -9 -1 -9 -10 0 -9 -5 -13 -11 -10 -5 4 -20
-4 -32 -17 -13 -14 -29 -22 -36 -20 -8 3 -11 0 -7 -7 4 -6 3 -11 -1 -11 -5 0
-24 -12 -42 -28 -19 -15 -36 -26 -38 -24 -2 2 -13 -6 -22 -17 -10 -11 -20 -18
-23 -16 -3 3 -13 -4 -23 -15 -10 -11 -24 -20 -32 -20 -7 0 -13 -4 -13 -10 0
-5 -7 -10 -15 -10 -8 0 -15 -4 -15 -9 0 -5 -9 -11 -21 -14 -12 -3 -18 -10 -14
-17 3 -6 3 -10 -2 -9 -12 3 -63 -23 -63 -32 0 -9 -41 -24 -55 -20 -5 1 -7 -1
-3 -5 8 -8 -32 -41 -44 -36 -5 1 -8 -4 -8 -11 0 -8 -6 -14 -12 -15 -7 0 -24
-4 -37 -8 -17 -5 -22 -4 -17 4 5 8 -1 12 -14 12 -12 0 -19 4 -16 8 2 4 -9 14
-25 21 -16 7 -27 17 -24 22 4 5 -1 6 -9 3 -9 -4 -18 0 -22 9 -3 8 -16 18 -30
21 -13 4 -24 11 -24 17 0 5 -16 17 -35 25 -22 9 -33 19 -29 26 4 6 3 8 -4 4
-6 -3 -17 1 -25 9 -9 8 -20 15 -26 15 -6 0 -11 4 -11 9 0 5 -13 14 -30 21 -16
7 -28 16 -25 20 3 4 -9 13 -25 20 -17 7 -30 16 -30 21 0 5 -7 9 -15 9 -7 0
-18 6 -22 14 -4 7 -25 23 -46 34 -20 11 -49 31 -64 46 -14 14 -30 26 -36 26
-5 0 -18 9 -28 21 -9 11 -20 20 -23 20 -24 -3 -30 0 -16 9 12 8 11 10 -7 10
-13 0 -23 5 -23 10 0 6 -5 10 -11 10 -7 0 -23 12 -36 26 -13 14 -27 24 -30 20
-3 -3 -17 7 -29 22 -13 15 -24 23 -24 17 0 -5 -7 1 -16 13 -8 12 -22 22 -30
22 -8 0 -12 5 -9 10 3 6 0 10 -8 10 -8 0 -18 7 -21 16 -3 8 -10 13 -15 9 -6
-3 -14 3 -20 12 -6 10 -11 14 -11 10 0 -4 -6 -2 -14 5 -8 7 -12 16 -9 21 2 4
-3 7 -11 7 -9 0 -24 8 -34 17 -11 10 -32 27 -47 38 -16 11 -34 26 -41 33 -7 6
-18 12 -24 12 -6 0 -8 5 -5 10 3 6 -1 10 -9 10 -9 0 -16 5 -16 10 0 6 -4 10
-10 10 -15 0 -49 37 -42 46 4 4 2 4 -4 1 -6 -4 -24 7 -40 23 -16 16 -35 30
-41 30 -7 0 -13 7 -13 16 0 8 -4 13 -9 10 -5 -4 -23 7 -39 24 -17 16 -36 30
-42 30 -6 0 -8 5 -4 12 5 8 2 9 -12 4 -10 -4 -15 -4 -12 0 10 9 -43 55 -56 47
-6 -3 -8 -3 -4 2 7 7 -14 35 -28 35 -4 0 -19 13 -35 29 -15 16 -29 27 -32 25
-2 -3 -10 2 -17 11 -7 8 -21 15 -31 15 -11 0 -19 5 -19 11 0 5 -4 8 -9 5 -4
-3 -22 -1 -40 4 -21 6 -31 5 -31 -2 0 -6 -6 -6 -15 2 -12 10 -15 10 -15 -1 0
-11 -2 -11 -10 1 -7 11 -10 11 -10 2 0 -7 -6 -12 -12 -11 -21 2 -58 -13 -58
-24 0 -6 -3 -7 -7 -4 -3 4 -12 -1 -20 -11 -9 -10 -12 -11 -7 -2 4 8 -4 4 -18
-10 -13 -14 -23 -28 -21 -32 2 -5 0 -8 -5 -8 -14 0 -42 -70 -45 -110 -1 -19
-6 -38 -12 -42 -7 -5 -7 -8 0 -8 6 0 11 -14 11 -31 1 -17 6 -34 11 -38 5 -3 8
-13 8 -21 -1 -8 7 -23 17 -33 10 -10 18 -21 18 -26 0 -4 11 -14 25 -21 13 -7
22 -16 20 -20 -2 -3 10 -15 27 -25 41 -24 68 -52 60 -61 -4 -4 -2 -4 4 -1 6 3
28 -9 49 -28 21 -19 40 -35 44 -35 4 0 19 -14 33 -30 15 -17 31 -32 35 -33 4
-1 7 -6 5 -10 -1 -5 2 -6 7 -3 5 3 23 -8 40 -26 17 -17 31 -28 31 -24 0 4 11
-3 24 -16 34 -34 79 -68 89 -68 4 0 5 -5 1 -11 -4 -7 -1 -10 6 -7 8 2 26 -8
40 -24 15 -15 30 -28 34 -28 6 0 47 -32 83 -67 13 -12 23 -19 23 -15 1 4 10
-4 20 -17 11 -13 20 -20 20 -16 0 3 7 -1 16 -9 8 -9 22 -16 30 -16 8 0 12 -4
9 -10 -3 -5 3 -10 14 -10 13 0 21 -7 21 -17 0 -9 3 -13 6 -10 4 4 15 -3 25
-15 11 -11 19 -18 19 -14 0 4 7 1 15 -6 33 -30 45 -38 55 -38 5 0 10 -5 10
-10 0 -6 11 -15 25 -22 13 -6 22 -15 18 -21 -3 -6 -2 -7 4 -4 5 4 19 -2 30
-13 12 -10 24 -16 27 -13 3 4 6 1 6 -5 0 -7 7 -12 15 -12 8 0 14 -5 12 -12 -1
-7 3 -12 9 -13 6 0 18 -8 28 -18 10 -9 24 -17 32 -17 8 0 13 -4 10 -8 -3 -4
13 -19 35 -32 21 -14 39 -28 39 -33 0 -4 4 -6 8 -3 5 3 20 -6 35 -20 15 -13
30 -25 34 -27 5 -1 7 -6 5 -11 -2 -5 4 -6 12 -3 8 3 17 -1 20 -9 3 -9 10 -13
14 -10 5 3 18 -2 28 -10 10 -9 13 -13 7 -9 -7 3 -13 3 -13 0 0 -3 14 -11 30
-16 17 -6 30 -15 30 -20 0 -5 5 -9 11 -9 6 0 17 -6 24 -12 34 -31 43 -36 49
-31 3 4 6 1 6 -5 0 -7 5 -12 11 -12 6 0 20 -10 31 -22 11 -13 16 -16 12 -8 -5
8 13 -3 39 -24 26 -21 47 -34 47 -30 0 5 5 1 11 -9 6 -9 14 -15 20 -12 5 4 9
1 9 -4 0 -6 6 -11 14 -11 8 0 21 -8 28 -17 7 -10 20 -19 28 -21 8 -2 20 -9 25
-15 6 -7 17 -12 25 -12 8 0 21 -5 27 -11 7 -7 23 -10 35 -7 19 4 20 3 8 -6 -8
-6 -10 -11 -5 -11 6 0 17 6 24 13 11 9 13 9 7 0 -9 -17 6 -17 23 0 11 10 12 9
6 -3 -8 -13 -7 -13 8 -1 9 7 17 10 17 5 0 -5 5 -2 10 6 9 13 10 13 10 0 1 -12
3 -11 11 3 5 9 21 17 35 17 13 0 27 7 30 15 4 8 9 13 13 10 4 -2 18 6 32 18
14 12 31 23 39 25 8 2 23 12 33 24 9 11 17 17 17 14 0 -8 94 55 98 66 2 4 10
8 18 8 8 0 14 5 14 10 0 6 7 10 15 10 8 0 15 5 15 10 0 6 7 10 15 10 9 0 18 7
21 15 4 8 10 13 14 10 5 -3 16 5 25 17 8 13 16 22 18 21 6 -7 46 11 41 18 -3
5 0 9 5 9 17 0 24 4 50 28 13 12 26 20 29 18 2 -3 15 7 28 21 13 14 24 22 24
18 0 -5 7 0 15 11 8 10 15 16 15 12 0 -5 8 0 18 10 10 9 29 24 42 32 12 8 28
21 36 27 7 7 18 13 24 13 6 0 13 7 16 15 4 8 11 15 16 15 6 0 16 7 22 16 6 8
20 17 31 18 11 2 19 8 18 13 -1 6 10 16 25 24 15 8 32 21 39 29 7 8 13 11 13
6 0 -4 9 2 21 15 11 13 18 17 14 9 -6 -13 -5 -13 7 0 7 8 31 28 53 44 22 17
43 35 47 40 4 6 8 7 8 2 0 -5 9 1 20 14 11 13 20 19 20 15 0 -5 7 0 15 11 8
10 15 16 15 12 0 -4 11 3 25 15 71 64 87 77 115 93 16 10 30 22 30 26 0 4 4 8
9 8 6 0 22 11 37 25 14 13 31 22 37 18 5 -3 8 -2 5 3 -3 5 3 17 14 27 10 9 18
15 18 12 0 -3 11 4 25 17 61 57 75 68 80 68 6 0 18 11 83 70 17 16 32 27 32
25 0 -3 14 8 31 25 17 16 36 27 41 24 4 -3 7 -2 6 3 -2 4 7 18 20 31 12 12 22
20 22 17 0 -2 15 11 34 29 18 19 43 39 55 45 12 7 19 16 16 22 -6 8 8 13 28
10 4 0 7 4 7 9 0 6 9 19 20 30 11 11 20 17 20 13 0 -5 11 5 25 21 14 16 25 26
25 22 0 -4 11 4 24 18 13 15 28 26 35 26 6 0 10 4 8 8 -1 4 10 20 26 35 15 15
27 26 27 23 0 -3 10 5 23 17 13 12 22 25 20 30 -2 4 0 7 6 7 5 0 30 19 54 42
24 24 57 53 72 65 16 13 26 23 22 23 -4 0 -2 6 5 14 7 8 16 12 20 9 5 -2 13 7
19 21 7 14 15 24 18 22 3 -2 16 7 29 20 12 13 19 24 15 24 -4 0 6 9 22 20 17
11 27 20 24 20 -4 0 11 18 33 40 22 22 44 40 49 40 5 0 9 5 9 10 0 13 37 50
43 44 3 -3 11 8 18 25 7 16 16 28 19 27 3 -2 13 5 23 16 9 10 15 18 13 18 -2
0 10 16 26 35 17 19 36 32 41 28 6 -3 7 -1 4 4 -4 6 7 25 25 42 17 17 29 31
25 31 -5 0 -2 6 5 14 7 8 16 12 20 10 4 -2 9 4 13 15 3 11 12 22 20 25 8 3 15
12 15 21 0 8 5 14 12 12 7 -1 12 3 13 10 0 6 11 21 24 32 13 12 22 24 18 27
-3 3 4 16 16 28 13 11 38 41 57 66 19 25 38 47 42 48 5 2 8 10 8 18 0 8 6 17
14 20 8 3 20 19 26 35 7 16 15 28 17 25 9 -9 31 19 26 31 -3 7 2 16 11 19 9 3
13 10 10 15 -3 5 0 9 5 9 6 0 11 7 11 16 0 8 4 13 9 10 5 -3 12 5 15 19 4 14
11 25 16 25 6 0 10 7 10 15 0 8 5 15 11 15 5 0 7 5 4 10 -3 6 -1 10 5 10 6 0
8 5 5 10 -3 6 -1 10 5 10 6 0 8 4 5 10 -3 6 1 10 9 10 9 0 16 3 15 8 -2 14 13
52 21 52 7 0 18 30 18 47 0 3 7 10 16 15 9 5 14 13 11 19 -4 5 -1 9 4 9 6 0
10 3 9 8 -3 12 25 62 34 62 5 0 6 5 3 10 -3 6 3 24 15 40 12 17 18 30 14 30
-3 0 -1 7 6 15 7 8 9 15 5 15 -5 0 -1 8 8 18 10 10 14 21 11 25 -4 3 1 13 10
22 9 9 14 21 11 26 -4 5 -2 9 2 9 5 0 9 10 10 22 1 11 8 25 15 29 10 7 10 9
-1 9 -11 0 -11 4 2 18 10 10 14 22 11 25 -4 4 -1 13 5 21 7 8 10 20 6 26 -3 5
-2 10 3 10 9 0 11 8 14 54 1 14 6 22 12 19 5 -4 7 3 4 15 -4 12 -2 25 3 28 5
3 9 15 9 28 0 12 5 27 12 34 7 7 8 12 4 12 -5 0 -3 7 4 15 7 8 9 15 5 15 -4 0
-1 8 6 17 12 15 12 16 -1 8 -13 -8 -13 -7 -1 8 8 10 15 32 17 50 2 17 6 43 9
57 4 14 7 32 7 40 0 8 6 21 12 29 9 12 8 13 -3 6 -11 -6 -12 -5 -5 6 10 17 13
32 15 81 2 23 6 35 13 31 6 -3 6 0 -1 7 -7 8 -9 19 -4 29 9 18 11 411 2 411
-3 0 -7 21 -8 48 -3 57 -6 73 -17 91 -7 10 -6 12 4 6 9 -6 11 -4 5 5 -4 7 -10
29 -12 49 -2 20 -8 37 -12 39 -5 2 -7 12 -4 23 3 10 0 25 -6 32 -6 8 -8 17 -4
20 3 4 2 12 -4 19 -8 11 -11 25 -15 76 -1 6 -4 12 -8 12 -4 0 -7 7 -8 15 -1 8
-3 22 -4 30 -1 8 -6 15 -11 15 -6 0 -8 3 -4 6 3 3 -3 28 -13 55 -11 27 -16 49
-12 49 4 0 -1 5 -10 10 -10 6 -15 19 -13 30 2 11 0 20 -6 20 -5 0 -9 9 -9 20
0 11 -4 20 -10 20 -5 0 -10 7 -10 15 0 8 -9 30 -19 49 -11 19 -17 37 -14 40 4
3 1 6 -6 6 -7 0 -9 5 -6 10 3 6 1 10 -5 10 -6 0 -8 5 -5 10 3 6 0 13 -8 16 -8
3 -20 23 -27 45 -7 21 -17 39 -21 39 -4 0 -18 20 -30 45 -12 25 -27 45 -31 45
-5 0 -7 4 -4 9 3 5 -1 11 -9 15 -8 3 -15 13 -15 21 0 10 -5 13 -12 9 -7 -4 -8
-3 -4 4 4 6 -1 20 -11 31 -41 44 -60 70 -55 76 3 3 0 5 -7 5 -7 0 -10 4 -6 9
3 5 -4 13 -16 16 -11 4 -18 9 -15 12 2 3 -5 15 -17 28 -12 12 -29 32 -37 44
-8 11 -21 21 -29 21 -8 0 -12 3 -9 6 7 6 -96 114 -108 114 -5 0 -24 17 -44 38
-19 22 -45 44 -58 51 -12 7 -20 17 -16 23 4 7 3 8 -5 4 -6 -4 -14 0 -17 8 -3
9 -10 13 -15 10 -5 -3 -12 2 -15 10 -3 9 -12 16 -20 16 -8 0 -14 5 -14 10 0 6
-5 10 -11 10 -6 0 -17 7 -26 15 -8 8 -20 12 -26 8 -7 -3 -9 -3 -5 2 7 7 -51
55 -66 55 -5 0 -73 43 -91 58 -13 10 -15 11 -42 18 -13 4 -23 11 -23 16 0 5
-5 6 -12 2 -6 -4 -16 0 -22 8 -6 8 -28 20 -48 27 -21 7 -38 17 -38 22 0 5 -3
8 -7 7 -17 -4 -73 14 -73 23 0 6 -4 7 -10 4 -5 -3 -10 -2 -10 4 0 6 -7 8 -15
5 -8 -4 -15 -1 -15 5 0 6 -7 8 -15 5 -8 -4 -15 -2 -15 4 0 5 -7 13 -16 16 -14
5 -15 4 -4 -9 11 -13 10 -14 -4 -9 -9 3 -16 10 -16 16 0 5 -4 6 -10 3 -5 -3
-10 -2 -10 2 0 5 -8 9 -17 10 -44 3 -63 8 -63 16 0 4 -4 5 -10 2 -5 -3 -10 0
-10 7 0 9 -3 9 -10 -2 -9 -14 -14 -7 -11 13 1 4 -8 3 -19 -3 -13 -7 -20 -7
-20 -1 0 6 -6 8 -14 5 -8 -3 -17 -1 -20 4 -3 6 -16 8 -29 5 -18 -4 -19 -3 -7
6 8 6 10 11 5 11 -6 0 -16 -5 -23 -12 -7 -7 -12 -8 -12 -2 0 10 -28 15 -87 17
-18 1 -33 4 -33 7 0 3 -12 6 -27 5 -16 0 -31 4 -35 10 -5 6 -8 4 -8 -5 0 -13
-1 -13 -10 0 -8 12 -11 13 -19 1 -6 -9 -11 -10 -15 -3 -4 6 -13 9 -21 5 -9 -3
-15 1 -15 8 0 11 -2 11 -9 0 -8 -12 -12 -12 -24 -2 -11 9 -17 9 -22 0 -6 -8
-10 -7 -16 2 -7 11 -9 11 -9 -1 0 -13 -2 -13 -9 -1 -8 12 -12 12 -25 2 -12
-11 -16 -11 -16 -1 0 10 -3 10 -15 0 -12 -10 -15 -10 -15 1 0 12 -2 12 -9 0
-7 -11 -9 -11 -14 0 -5 12 -6 12 -6 0 -1 -11 -4 -11 -16 -1 -12 10 -15 10 -15
-1 0 -10 -3 -10 -12 -1 -8 8 -17 8 -31 0 -15 -7 -22 -7 -28 3 -6 9 -9 10 -9 2
0 -6 -11 -10 -25 -8 -14 1 -25 -1 -25 -5 0 -9 -32 -6 -48 4 -6 4 -12 3 -12 -3
0 -5 -8 -10 -17 -10 -10 0 -33 -1 -51 -1 -18 -1 -30 -5 -28 -9 3 -4 -9 -7 -27
-6 -18 1 -37 -2 -44 -7 -7 -5 -14 -5 -18 2 -3 6 -11 8 -16 4 -5 -3 -7 -9 -5
-13 3 -4 -12 -7 -32 -6 -20 1 -45 -4 -55 -11 -10 -6 -27 -10 -38 -7 -10 3 -19
0 -19 -6 0 -6 -11 -11 -25 -11 -14 0 -44 -9 -66 -19 -21 -11 -37 -16 -34 -11
3 5 -8 3 -24 -3 -17 -6 -28 -14 -26 -18 3 -3 -7 -5 -20 -3 -14 1 -31 -4 -39
-11 -7 -8 -16 -11 -20 -8 -3 4 -6 2 -6 -3 0 -5 -12 -10 -27 -11 -15 0 -32 -9
-39 -18 -7 -9 -17 -14 -23 -10 -6 3 -11 1 -11 -5 0 -6 -4 -9 -9 -5 -5 3 -17
-2 -25 -11 -9 -8 -16 -13 -16 -9 0 3 -10 -1 -23 -10 -13 -8 -28 -12 -33 -8 -5
5 -6 4 -2 0 7 -9 -97 -69 -119 -70 -7 0 -10 -4 -7 -9 4 -5 -3 -12 -15 -15 -12
-3 -21 -10 -21 -15 0 -6 -6 -8 -14 -5 -8 3 -17 -1 -20 -9 -3 -9 -10 -13 -15
-10 -5 3 -12 -1 -15 -10 -3 -8 -11 -12 -17 -8 -8 5 -9 3 -5 -5 5 -8 0 -14 -13
-18 -12 -3 -21 -10 -21 -15 0 -5 -4 -7 -8 -4 -5 3 -15 -4 -22 -15 -8 -10 -19
-19 -25 -19 -6 0 -21 -11 -33 -25 -12 -14 -26 -25 -32 -25 -5 0 -10 -7 -10
-15 0 -8 -3 -14 -7 -14 -18 3 -36 -1 -30 -7 10 -10 -17 -32 -33 -26 -20 8 -40
28 -35 36 3 3 2 4 -1 1 -11 -7 -74 47 -67 58 3 5 2 7 -4 4 -5 -3 -20 4 -34 16
-13 12 -36 28 -51 36 -15 8 -24 19 -21 24 4 6 0 8 -10 4 -9 -3 -18 0 -21 9 -3
8 -13 14 -23 14 -15 0 -16 2 -3 10 13 9 13 10 -1 10 -20 0 -69 23 -69 33 0 4
-7 7 -15 7 -8 0 -15 5 -15 11 0 5 -4 7 -10 4 -5 -3 -10 -2 -10 4 0 6 -11 13
-25 17 -14 3 -22 11 -18 17 3 5 2 7 -4 4 -6 -4 -19 0 -29 8 -10 8 -27 15 -36
15 -10 0 -18 5 -18 10 0 6 -7 10 -16 10 -9 0 -23 8 -30 18 -9 11 -13 13 -14 4
0 -7 -5 -10 -10 -7 -6 4 -8 10 -6 14 3 4 -3 7 -12 8 -31 2 -46 8 -60 21 -8 7
-17 10 -22 7 -5 -3 -10 -1 -12 5 -2 6 -17 11 -35 13 -17 1 -29 5 -26 10 2 4 1
7 -4 8 -4 0 -15 2 -23 4 -8 2 -25 6 -37 9 -12 2 -31 9 -42 15 -11 6 -31 11
-45 11 -14 0 -26 4 -26 8 0 4 -17 9 -37 10 -21 2 -40 7 -43 13 -4 5 -14 7 -23
3 -9 -3 -17 -2 -17 3 0 5 -16 9 -35 8 -19 -1 -35 1 -35 4 0 4 -10 7 -22 8 -31
1 -75 10 -89 19 -7 4 -9 3 -6 -4 5 -6 0 -8 -13 -5 -11 3 -17 10 -13 17 3 6 -4
2 -16 -9 -20 -17 -24 -18 -34 -5 -7 8 -22 14 -35 12 -13 -2 -29 1 -36 7 -9 7
-16 7 -25 -2 -9 -9 -14 -9 -21 3 -8 12 -10 12 -10 1 0 -10 -3 -11 -14 -2 -11
9 -15 9 -19 -1 -4 -10 -8 -10 -17 2 -9 12 -13 12 -17 2 -4 -10 -8 -10 -19 -1
-11 9 -14 9 -14 -1 0 -10 -3 -10 -15 0 -8 7 -15 8 -15 3 0 -5 -7 -10 -15 -10
-8 0 -15 5 -15 10 0 5 -6 4 -14 -2 -11 -9 -16 -9 -21 0 -6 8 -10 8 -15 -2 -7
-10 -12 -10 -23 0 -9 7 -18 8 -21 3z"/>
<path d="M3230 7460 c0 -5 5 -10 11 -10 5 0 7 5 4 10 -3 6 -8 10 -11 10 -2 0
-4 -4 -4 -10z"/>
</g>
</svg>
